# xmcd
#
# Track frame offsets:
#	150
#	17738
#	43267
#	74740
#	114157
#	143378
#	168171
#	197806
#	228917
#	250071
#	286284
#
# Disc length: 4254 seconds
#
# Revision: 0
# Processed by: cddbd v1.5.2PL0 Copyright (c) Steve Scherf et al.
# Submitted via: EZCDAudioConverter 1.3.4.1
#
DISCID=93109c0b
DTITLE=Sacred Overtones - Eternal Now
DYEAR=1900
DGENRE=
TTITLE0=Sacred Overtones - Wind
TTITLE1=Sacred Overtones - From The Heart
TTITLE2=Sacred Overtones - Peace
TTITLE3=Sacred Overtones - Guest: Pascale Van Coppenolle - Awakening
TTITLE4=Sacred Overtones - Orion
TTITLE5=Sacred Overtones - Deep
TTITLE6=Sacred Overtones - Guest: Marc - Alpes
TTITLE7=Sacred Overtones - Moments
TTITLE8=Sacred Overtones - Inside
TTITLE9=Sacred Overtones - Birth
TTITLE10=Sacred Overtones - Celeste
EXTD=
EXTT0=
EXTT1=
EXTT2=
EXTT3=
EXTT4=
EXTT5=
EXTT6=
EXTT7=
EXTT8=
EXTT9=
EXTT10=
PLAYORDER=
